<svg xmlns="http://www.w3.org/2000/svg" viewBox="0 0 1000 1000">
  <g transform="translate(0 1000) scale(.1 -.1)" fill="#111827">
    <path d="M4280 9975c-1068-166-2031-654-2790-1415-299-299-537-605-758-975-859-1440-932-3239-192-4750 493-1005 1290-1802 2295-2295 1520-744 3317-667 4770 205 1022 613 1788 1566 2166 2695 99 297 165 573 209 873 18 126 20 190 20 720 0 535-2 593-21 722-205 1400-993 2648-2164 3430-628 419-1320 686-2060 794-130 19-184 21-735 20-565-1-602-2-740-24zm1218-1029c913-123 1688-501 2317-1131 631-630 1004-1394 1130-2315 25-179 31-617 11-820-88-925-481-1769-1124-2418-640-647-1441-1034-2372-1149-203-25-657-25-860 0-774 95-1442 374-2045 854-142 112-476 447-588 587-480 604-759 1272-854 2046-25 203-25 657 0 860 96 774 377 1449 855 2046 107 133 352 387 488 504 383 330 820 582 1290 743 334 115 590 169 999 211 95 10 645-3 753-18z"/>
    <path d="M4511 7187c-12-14-32-61-46-113-174-649-609-1232-1187-1590-107-66-313-170-413-208-80-31-115-64-115-107 0-49 15-65 123-138 305-204 596-504 792-816 31-49 92-162 136-250 148-304 238-627 268-965 12-136 15-146 52-165 58-30 61-29 240 106 355 267 741 430 1205 511 112 19 166 22 409 23 300 0 396-9 613-61 142-33 173-32 206 7 14 17 26 37 26 46 0 8-27 94-59 191-99 295-138 505-148 802-17 526 116 1029 393 1490 35 59 64 118 64 133 0 14-11 39-25 55l-25 30-277 5c-241 4-297 8-423 30-284 51-499 121-755 247-315 155-601 371-816 618-128 147-122 142-172 142-33 0-49-6-66-23z"/>
  </g>
</svg>
